<svg xmlns="http://www.w3.org/2000/svg" viewBox="0 0 512 512" fill="silver">
    <path d="M437.402 129.686c-.769-.769-71.194-71.184-124.207-124.197A18.875 18.875 0 00299.944 0h-212.1C77.499 0 69.112 8.387 69.112 18.732v474.537c0 10.345 8.387 18.732 18.732 18.732h336.313c10.345 0 18.732-8.387 18.732-18.732V142.932c0-4.732-1.934-9.693-5.487-13.246zM318.679 63.955c8.557 8.555 52.229 52.228 60.25 60.249h-60.25V63.955zm86.747 410.582H106.575V37.463h174.642v105.472c0 10.345 8.387 18.732 18.732 18.732h105.477v312.87z"/>
    <path d="M166.87 161.667h60.567c10.345 0 18.732-8.387 18.732-18.732s-8.387-18.732-18.732-18.732H166.87c-10.345 0-18.732 8.387-18.732 18.732 0 10.347 8.386 18.732 18.732 18.732zM148.138 210.032c0 10.345 8.387 18.732 18.732 18.732h178.262c10.345 0 18.732-8.387 18.732-18.732 0-10.346-8.387-18.732-18.732-18.732H166.87c-10.345.001-18.732 8.388-18.732 18.732zM345.132 258.396H166.87c-10.345 0-18.732 8.387-18.732 18.732s8.387 18.732 18.732 18.732h178.262c10.345 0 18.732-8.387 18.732-18.732 0-10.346-8.387-18.732-18.732-18.732zM345.132 325.491H166.87c-10.345 0-18.732 8.387-18.732 18.732s8.387 18.732 18.732 18.732h178.262c10.345 0 18.732-8.387 18.732-18.732s-8.387-18.732-18.732-18.732zM345.132 392.587H166.87c-10.345 0-18.732 8.387-18.732 18.732 0 10.345 8.387 18.732 18.732 18.732h178.262c10.345 0 18.732-8.387 18.732-18.732 0-10.346-8.387-18.732-18.732-18.732z"/>
</svg>
